HIERARCHY
ROOT Root
{
	OFFSET 0.00 0.00 0.00
	CHANNELS 6 Xposition Yposition Zposition Xrotation Yrotation Zrotation
	JOINT L_Femur
	{
		OFFSET 2.71916 0.00000 0.00000
		CHANNELS 3 Xrotation Yrotation Zrotation
		JOINT L_Tibia
		{
			OFFSET 0.00000 -15.39883 0.00000
			CHANNELS 3 Xrotation Yrotation Zrotation
			JOINT L_Foot
			{
				OFFSET 0.00000 -15.97808 0.00000
				CHANNELS 3 Xrotation Yrotation Zrotation
				JOINT L_Toe
				{
					OFFSET 0.00000 -1.18848 4.43549
					CHANNELS 3 Xrotation Yrotation Zrotation
					End Site
					{
						OFFSET 0.00000 0.00000 2.95275
					}
				}
			}
		}
	}
	JOINT R_Femur
	{
		OFFSET -2.71916 0.00000 0.00000
		CHANNELS 3 Xrotation Yrotation Zrotation
		JOINT R_Tibia
		{
			OFFSET 0.00000 -15.39883 0.00000
			CHANNELS 3 Xrotation Yrotation Zrotation
			JOINT R_Foot
			{
				OFFSET 0.00000 -15.97808 0.00000
				CHANNELS 3 Xrotation Yrotation Zrotation
				JOINT R_Toe
				{
					OFFSET 0.00000 -1.18848 4.43549
					CHANNELS 3 Xrotation Yrotation Zrotation
					End Site
					{
						OFFSET 0.00000 0.00000 2.95275
					}
				}
			}
		}
	}
	JOINT LowerBack
	{
		OFFSET 0.00000 0.03937 0.00000
		CHANNELS 3 Xrotation Yrotation Zrotation
		JOINT Thorax
		{
			OFFSET 0.00000 8.14656 0.00000
			CHANNELS 3 Xrotation Yrotation Zrotation
			JOINT Neck
			{
				OFFSET 0.00000 9.84250 0.00000
				CHANNELS 3 Xrotation Yrotation Zrotation
				JOINT head
				{
					OFFSET 0.00000 5.52432 0.00000
					CHANNELS 3 Xrotation Yrotation Zrotation
					End Site
					{
						OFFSET 0.00000 4.52755 0.00000
					}
				}
			}
			JOINT L_Collar
			{
				OFFSET 0.00000 9.84250 0.00000
				CHANNELS 3 Xrotation Yrotation Zrotation
				JOINT L_Humerus
				{
					OFFSET 5.74971 -0.00002 0.00000
					CHANNELS 3 Xrotation Yrotation Zrotation
					JOINT L_Elbow
					{
						OFFSET 10.80305 -0.00004 0.00000
						CHANNELS 3 Xrotation Yrotation Zrotation
						JOINT L_Wrist
						{
							OFFSET 8.59979 -0.00003 0.00000
							CHANNELS 3 Xrotation Yrotation Zrotation
							JOINT L_Wrist_End
							{
								OFFSET 3.93700 -0.00001 0.00000
								CHANNELS 3 Xrotation Yrotation Zrotation
							}
						}
					}
				}
			}
			JOINT R_Collar
			{
				OFFSET 0.00000 9.84250 0.00000
				CHANNELS 3 Xrotation Yrotation Zrotation
				JOINT R_Humerus
				{
					OFFSET -5.74971 -0.00002 0.00000
					CHANNELS 3 Xrotation Yrotation Zrotation
					JOINT R_Elbow
					{
						OFFSET -10.80305 -0.00004 0.00000
						CHANNELS 3 Xrotation Yrotation Zrotation
						JOINT R_Wrist
						{
							OFFSET -8.59979 -0.00003 0.00000
							CHANNELS 3 Xrotation Yrotation Zrotation
							JOINT R_Wrist_End
							{
								OFFSET -5.41338 -0.00002 0.00000
								CHANNELS 3 Xrotation Yrotation Zrotation
							}
						}
					}
				}
			}
		}
	}
}
MOTION
Frames: 19
Frame Time: 0.008333
 -4.4200 33.7210 7.7887 -8.7164 20.0143 2.7045 5.5640 -8.7238 -2.8544 19.0943 -0.0000 0.0000 10.6522 5.5597 13.6202 -45.4312 0.0000 -0.0000 -12.4568 2.9264 -3.4587 53.3600 -0.0000 0.0000 -16.7720 -43.0329 77.3270 32.0052 -0.0000 0.0000 -2.0720 -2.5847 -7.8043 14.4745 -1.7021 11.8168 20.4227 2.6672 -2.7269 12.0625 -5.4075 -5.7983 -7.1416 -2.0391 14.3013 -9.7384 23.4995 -69.1150 -179.9996 -63.2683 -179.9993 52.2619 28.7871 -28.4666 -0.0000 -0.0000 0.0000 -0.8376 -7.9150 -5.0523 4.0565 -21.6711 70.1045 -179.9995 66.6817 179.9993 3.9998 -19.1744 -7.5425 -0.0000 0.0000 -0.0000
 -4.4711 33.7388 7.9505 -8.3719 19.8506 1.9509 5.9633 -8.4151 -1.9801 18.5342 -0.0000 0.0000 10.1955 5.5482 14.3923 -45.0432 0.0000 -0.0000 -12.6424 3.2008 -2.7067 51.2385 -0.0000 0.0000 -16.0070 -42.6910 78.0189 32.1505 -0.0000 -0.0000 -2.4581 -3.0909 -8.0327 14.8387 -1.7966 12.6134 20.0201 2.4179 -2.4544 12.3197 -5.2901 -5.6696 -7.9904 -2.7722 14.6283 -8.4137 23.3733 -68.9986 -179.9995 -64.9935 -179.9993 52.9834 29.1742 -28.0399 -0.0000 0.0000 -0.0000 -1.1258 -8.4423 -5.0668 3.7816 -21.6759 70.0256 -179.9995 66.3835 179.9993 3.4228 -19.1682 -8.6749 -0.0000 0.0000 -0.0000
 -4.5092 33.7554 8.0856 -8.0016 19.6848 1.2616 6.1940 -8.0517 -1.2020 18.0249 -0.0000 0.0000 10.2688 5.4797 14.8612 -45.4346 0.0000 -0.0000 -12.8641 3.5934 -2.0375 49.1171 -0.0000 0.0000 -15.3842 -42.4105 78.5779 32.2956 -0.0000 0.0000 -2.7277 -3.6174 -8.1947 14.9454 -1.8866 13.3987 19.9176 2.2678 -2.6168 12.3978 -5.4604 -5.1260 -7.6765 -3.1399 14.3764 -8.7814 23.3244 -68.4387 -179.9995 -66.6286 -179.9993 54.0132 29.0244 -28.6395 -0.0000 0.0000 -0.0000 -1.5851 -8.7799 -5.2604 3.8965 -22.1178 70.1193 -179.9995 65.8172 179.9993 2.4921 -18.9991 -8.4361 -0.0000 0.0000 -0.0000
 -4.4889 33.7569 8.1937 -7.7864 19.2156 1.1224 6.4911 -8.0727 -1.1364 17.4989 -0.0000 0.0000 10.5185 5.4426 13.6390 -45.6716 0.0000 0.0000 -12.9861 4.1145 -2.0724 47.1158 -0.0000 0.0000 -14.7831 -41.7300 79.2482 32.3860 -0.0000 0.0000 -2.6942 -3.9831 -8.3012 14.9012 -2.1671 13.5479 19.8166 2.0750 -2.1510 12.3884 -5.2109 -5.6811 -7.6047 -3.3186 14.3111 -8.7293 23.1705 -68.0654 -179.9995 -68.1069 -179.9992 55.0352 29.6847 -28.8363 -0.0000 0.0000 -0.0000 -1.4334 -8.9837 -4.9918 3.4388 -22.7724 69.8489 -179.9995 65.1516 179.9993 1.9209 -18.4807 -7.7980 -0.0000 0.0000 -0.0000
 -4.5300 33.7641 8.3300 -7.3963 18.6511 0.4732 6.5919 -7.5536 -0.4801 17.2800 -0.0000 0.0000 10.3632 5.2726 13.3558 -45.7995 0.0000 0.0000 -13.2462 4.7691 -1.4091 44.9216 -0.0000 0.0000 -14.3764 -41.1700 79.7339 32.5675 -0.0000 0.0000 -2.9235 -4.2726 -8.5991 14.9003 -1.9781 14.4046 19.9568 1.7137 -1.8887 12.0659 -5.2279 -5.7398 -7.7291 -4.0103 14.1322 -8.3160 23.3420 -67.7643 -179.9994 -69.6378 -179.9992 56.1715 29.7505 -28.3522 -0.0000 0.0000 -0.0000 -2.0934 -9.3621 -5.0712 3.5421 -23.7498 69.7397 -179.9996 64.5106 179.9993 1.7085 -18.5578 -6.5985 -0.0000 0.0000 -0.0000
 -4.5187 33.7556 8.4236 -7.1960 17.7255 0.2130 6.7257 -7.3762 -0.4612 17.1850 -0.0000 0.0000 10.1630 6.0041 13.2270 -45.7611 0.0000 0.0000 -13.4774 5.6226 -1.1897 43.0264 -0.0000 0.0000 -13.2376 -40.3257 81.0332 33.0023 -0.0000 0.0000 -3.0956 -4.4336 -8.6591 15.2269 -2.0261 14.6130 19.9046 1.5713 -1.6984 11.7143 -5.2273 -5.9365 -7.6692 -4.0284 13.8725 -8.4793 23.3260 -67.2567 -179.9994 -71.1032 -179.9991 57.1311 30.7056 -28.3474 -0.0000 0.0000 -0.0000 -2.1242 -9.4331 -5.0004 2.9010 -24.3006 69.5041 -179.9996 63.9674 179.9993 1.4761 -18.3746 -5.8304 -0.0000 0.0000 -0.0000
 -4.5315 33.7681 8.5735 -6.8372 17.3761 -0.4135 6.8997 -7.2843 0.1163 16.9333 -0.0000 0.0000 10.2498 6.1827 13.4828 -46.0243 0.0000 -0.0000 -13.5576 6.1006 -0.6430 40.8004 -0.0000 0.0000 -12.2554 -40.0178 81.6965 32.9422 -0.0000 -0.0000 -3.9302 -4.9393 -8.9420 16.3167 -2.1738 15.4237 19.8520 1.6644 -1.7229 11.2482 -5.1484 -5.8583 -8.1784 -4.1247 13.7694 -7.8764 23.5718 -67.1159 -179.9993 -72.4634 -179.9991 57.2818 31.3645 -27.2727 -0.0000 0.0000 -0.0000 -2.6651 -9.4155 -5.1910 2.5141 -24.6719 69.2597 -179.9996 63.4871 179.9993 1.9969 -18.6105 -5.0555 -0.0000 0.0000 -0.0000
 -4.5392 33.7565 8.7597 -6.6602 17.4070 -0.5466 7.2528 -7.6214 0.3167 16.6233 -0.0000 0.0000 10.1283 6.3514 13.4948 -46.0169 0.0000 0.0000 -13.4003 6.2949 -0.5837 38.8747 -0.0000 0.0000 -12.0176 -39.6490 81.8834 32.7919 -0.0000 0.0000 -4.0286 -5.4552 -9.1376 16.1809 -2.6338 15.5079 20.1065 1.1630 -0.8768 11.4359 -4.6479 -6.6042 -7.6165 -4.2742 13.5663 -8.1858 23.4677 -66.5890 -179.9993 -73.9168 -179.9990 58.2847 31.4803 -27.3281 -0.0000 0.0000 -0.0000 -2.4725 -9.8778 -4.7689 2.0219 -25.1123 68.8800 -179.9996 62.8001 179.9993 1.8985 -18.7302 -4.4485 -0.0000 0.0000 -0.0000
 -4.5867 33.7513 8.9853 -6.6836 17.5540 -0.9639 7.8211 -8.0317 1.0398 16.4271 -0.0000 0.0000 10.0292 6.0234 12.6609 -46.3075 0.0000 -0.0000 -12.9033 6.3457 -0.0802 36.7692 -0.0000 0.0000 -10.9256 -39.8663 83.0117 32.5853 -0.0000 -0.0000 -4.3930 -6.1772 -9.3798 16.8594 -3.0056 15.9556 20.1231 1.1344 -0.8728 11.3411 -4.5844 -6.3634 -8.0092 -4.2055 13.6207 -7.5998 23.4955 -66.4570 -179.9992 -75.5384 -179.9989 58.0249 30.9488 -26.3613 -0.0000 0.0000 -0.0000 -2.5517 -10.1059 -4.7708 1.8817 -25.4171 69.0106 -179.9996 62.0864 179.9993 1.6303 -18.8681 -3.7551 -0.0000 0.0000 -0.0000
 -4.5884 33.7295 9.1378 -6.5601 16.9030 -1.1583 8.1060 -8.1662 1.1259 16.3625 -0.0000 0.0000 9.8052 6.5254 12.3098 -46.2070 0.0000 0.0000 -12.9473 7.0436 0.1649 35.1788 -0.0000 0.0000 -9.7992 -39.7797 83.5501 32.7855 -0.0000 0.0000 -4.4482 -6.3381 -9.4070 16.8031 -3.0721 16.0497 20.2247 0.9574 -0.9007 11.3258 -4.6647 -5.9103 -7.4504 -4.1897 13.2850 -8.0107 23.2703 -65.9841 -179.9991 -77.1283 -179.9988 57.8793 30.9543 -25.3476 -0.0000 0.0000 -0.0000 -2.4324 -10.4933 -4.7266 1.5102 -25.8953 68.9050 -179.9996 61.2937 179.9994 2.1704 -19.4378 -2.4553 -0.0000 0.0000 -0.0000
 -4.6122 33.7087 9.2755 -6.4215 16.1335 -1.4339 8.3643 -7.8023 1.3467 16.2487 -0.0000 0.0000 9.5594 6.7804 12.1517 -46.3555 0.0000 0.0000 -13.0912 7.7382 0.5742 33.7105 -0.0000 0.0000 -8.8162 -39.8544 83.6546 33.0379 -0.0000 0.0000 -4.3056 -6.4765 -9.4254 16.5625 -3.0396 16.1935 19.9942 0.6526 -0.5764 11.6630 -4.5816 -6.1139 -7.3672 -4.2274 13.0516 -7.8016 22.9393 -65.5267 -179.9989 -78.8589 -179.9987 56.5145 31.3183 -23.7006 -0.0000 0.0000 -0.0000 -2.4095 -10.8903 -4.5251 1.1468 -26.4441 68.6331 -179.9996 60.5944 179.9994 1.8776 -19.4493 -1.5850 -0.0000 0.0000 -0.0000
 -4.6339 33.6913 9.4034 -6.2727 15.3307 -1.7500 8.3174 -7.2543 1.5345 16.6591 -0.0000 0.0000 9.2875 6.9603 11.7389 -46.3633 0.0000 -0.0000 -13.0147 8.3038 0.9390 31.8306 -0.0000 0.0000 -7.6891 -39.7065 84.0372 33.0927 -0.0000 0.0000 -4.2265 -6.7343 -9.4714 16.3777 -3.0871 16.4190 20.0811 0.7269 -0.9456 11.7576 -4.7008 -5.2968 -6.7953 -4.5213 12.8364 -7.8574 23.5696 -65.3974 -179.9987 -80.6164 -179.9985 55.6878 31.3123 -21.6540 -0.0000 0.0000 -0.0000 -2.1966 -11.2577 -4.5497 0.6868 -26.0564 68.7397 -179.9996 60.1737 179.9994 2.0212 -19.7099 -2.3294 -0.0000 0.0000 -0.0000
 -4.6496 33.6646 9.5474 -6.1379 14.5415 -2.0147 8.3941 -6.5459 1.7339 16.9204 -0.0000 0.0000 8.9112 6.7173 11.3238 -46.3327 0.0000 -0.0000 -13.0194 9.1157 1.2336 30.3973 -0.0000 0.0000 -6.9131 -38.9796 83.8190 32.6798 -0.0000 0.0000 -4.4937 -6.9079 -9.5679 16.7618 -3.1350 16.5710 19.8804 0.8872 -1.7430 11.7745 -5.1300 -3.7784 -6.4277 -4.7712 12.9259 -7.5544 24.0975 -65.4973 -179.9984 -82.3584 -179.9982 53.9408 31.4962 -18.7230 -0.0000 0.0000 -0.0000 -2.3558 -11.1801 -4.7527 0.8549 -26.0736 69.1003 -179.9996 59.6074 179.9994 1.6368 -19.5844 -3.4675 -0.0000 0.0000 -0.0000
 -4.6617 33.6385 9.7171 -6.0356 13.7950 -2.1776 8.5205 -6.1666 1.8354 17.2368 -0.0000 0.0000 8.4836 6.5464 11.0225 -46.1290 0.0000 -0.0000 -13.0190 9.7634 1.4692 29.2211 -0.0000 0.0000 -5.7884 -38.7369 84.2393 32.9774 -0.0000 -0.0000 -4.6292 -7.0063 -9.6173 16.7563 -3.1568 16.6829 20.2328 0.8390 -1.8369 11.3821 -5.1839 -3.5916 -6.3137 -4.7545 12.8490 -7.3247 24.0966 -65.6018 -179.9978 -84.5103 -179.9976 52.6439 31.1881 -16.9422 -0.0000 0.0000 -0.0000 -2.2282 -11.3590 -4.7546 0.8101 -26.4472 69.1839 -179.9997 58.8405 179.9994 2.6639 -19.6882 -2.7441 -0.0000 0.0000 -0.0000
 -4.6847 33.6148 9.8571 -5.9864 12.9181 -2.3497 8.5326 -5.6392 1.9235 17.7585 -0.0000 0.0000 8.1798 6.4371 10.7769 -46.1529 0.0000 0.0000 -13.1133 10.5083 1.7982 28.2645 -0.0000 0.0000 -4.9795 -38.3749 84.1626 32.6717 -0.0000 0.0000 -4.6647 -7.1376 -9.7005 16.8777 -3.2009 16.7587 20.1979 0.7591 -1.6664 11.3641 -5.0661 -3.8227 -6.3715 -4.6372 12.7972 -6.7583 24.2078 -65.7589 -179.9965 -86.5139 -179.9963 50.6433 31.2394 -14.0526 -0.0000 0.0000 -0.0000 -2.4705 -11.4729 -4.7118 0.6336 -26.4252 69.0748 -179.9997 58.3597 179.9994 3.1686 -19.8220 -2.5140 -0.0000 0.0000 -0.0000
 -4.7086 33.5851 9.9925 -5.9569 12.0394 -2.5149 8.4667 -5.0808 2.0223 18.4381 -0.0000 0.0000 7.8661 6.3101 10.6351 -46.2495 0.0000 -0.0000 -13.1744 10.9801 2.1362 27.4037 -0.0000 0.0000 -3.7725 -38.1318 85.0600 32.6639 -0.0000 -0.0000 -4.6161 -7.2626 -9.7376 16.8772 -3.2398 16.8108 21.1242 0.9802 -2.3039 10.0441 -5.2071 -2.5509 -6.1397 -4.4926 12.7374 -6.5870 24.5419 -65.9228 -179.9914 -88.6027 -179.9912 49.1553 30.8983 -12.0027 -0.0000 0.0000 -0.0000 -2.3905 -11.5394 -4.6354 0.2790 -26.4481 69.0112 -179.9997 57.7457 179.9994 2.9596 -19.7704 -2.3203 -0.0000 0.0000 -0.0000
 -4.7327 33.5543 10.1556 -5.9506 11.2605 -2.6680 8.4419 -4.5912 2.1249 19.1093 -0.0000 0.0000 7.7330 6.4798 10.6854 -46.7421 0.0000 0.0000 -13.1240 11.2955 2.4314 26.7149 -0.0000 0.0000 -2.7914 -37.5914 85.7142 32.6694 -0.0000 -0.0000 -4.5357 -7.4217 -9.7725 16.7251 -3.3175 16.8445 20.9679 0.8163 -2.0316 10.5295 -5.1016 -3.0045 -5.8494 -4.3395 12.5729 -6.3626 24.9048 -66.0644 -0.0183 -89.3404 -0.0181 47.4697 30.4677 -9.7889 -0.0000 0.0000 -0.0000 -2.2376 -11.6734 -4.6202 0.0108 -26.2128 69.0610 -179.9997 57.2872 179.9994 3.5932 -19.8824 -2.7293 -0.0000 0.0000 -0.0000
 -4.7613 33.5255 10.3018 -5.9535 10.5306 -2.7792 8.3933 -4.6701 2.1439 19.8165 -0.0000 0.0000 7.7131 6.9246 10.4229 -47.3056 0.0000 0.0000 -13.0749 11.6270 2.6556 26.1395 -0.0000 0.0000 -1.7611 -36.7418 86.3646 32.4128 -0.0000 0.0000 -4.5291 -7.6012 -9.8245 16.7918 -3.4613 16.8127 21.2441 0.7652 -1.6026 10.1147 -4.6359 -3.7093 -5.4405 -4.1883 12.5119 -6.3717 25.6428 -66.3523 -0.0044 -87.2553 -0.0042 46.2620 30.1480 -8.0310 -0.0000 0.0000 -0.0000 -2.3632 -11.7226 -4.7043 -0.1000 -26.0063 69.2951 -179.9997 56.9009 179.9994 3.8881 -19.8816 -2.5758 -0.0000 0.0000 -0.0000
 -4.7915 33.4941 10.4381 -6.0211 9.6488 -2.9058 8.3506 -4.4423 2.1539 20.6197 -0.0000 0.0000 7.5407 7.3662 10.2444 -47.6432 0.0000 0.0000 -13.1301 12.0835 3.0098 26.0171 -0.0000 0.0000 -1.1278 -36.4242 86.9460 32.9895 -0.0000 -0.0000 -4.6674 -7.7112 -9.8935 17.1576 -3.5271 16.8071 21.0279 1.0879 -1.7757 10.4775 -4.4482 -3.5824 -5.0861 -4.1669 12.2539 -6.1979 26.3630 -66.3590 -0.0028 -85.6615 -0.0026 43.6221 29.9979 -6.5953 -0.0000 0.0000 -0.0000 -2.5283 -11.5921 -4.8437 -0.2580 -25.5732 69.4982 -179.9997 56.5351 179.9994 4.1471 -19.9324 -2.9079 -0.0000 0.0000 -0.0000
